<svg width="240" height="64" viewBox="0 0 240 64" fill="none" xmlns="http://www.w3.org/2000/svg">
  <rect width="240" height="64" rx="12" fill="#0B6B62"/>
  <path d="M32 18C23.1634 18 16 25.1634 16 34C16 42.8366 23.1634 50 32 50C40.8366 50 48 42.8366 48 34C48 25.1634 40.8366 18 32 18ZM32 44C26.4772 44 22 39.5228 22 34C22 28.4772 26.4772 24 32 24C37.5228 24 42 28.4772 42 34C42 39.5228 37.5228 44 32 44Z" fill="#FFFFFF"/>
  <path d="M60 20H70.8V44H60V20ZM95.248 44H84.448L78.688 34.816V44H68.8V20H79.6L85.36 29.184V20H95.248V44ZM126.837 32C126.837 38.072 122.117 44 114.357 44C106.597 44 101.877 38.072 101.877 32C101.877 25.928 106.597 20 114.357 20C122.117 20 126.837 25.928 126.837 32ZM116.677 32C116.677 29.048 115.093 27.2 114.357 27.2C113.621 27.2 112.037 29.048 112.037 32C112.037 34.952 113.621 36.8 114.357 36.8C115.093 36.8 116.677 34.952 116.677 32ZM150.712 44H139.112L134.392 38.168V44H124.504V12H134.392V25.88L139.472 20H150.112L142.456 28.088L150.712 44ZM181.675 28.28H171.387V20H201.787V28.28H191.435V44H181.675V28.28ZM223.74 27.2H216.132V44H206.34V27.2H198.764V20H223.74V27.2Z" fill="#FFFFFF"/>
  <text x="64" y="47" font-family="Inter, 'Segoe UI', sans-serif" font-size="16" font-weight="600" fill="#E0F2F1">Loan Management System</text>
</svg>
